<svg width="55" height="51" viewBox="0 0 55 51" fill="none" xmlns="http://www.w3.org/2000/svg">
<path d="M51.3107 13.3241C48.8516 9.41714 45.516 6.32399 41.303 4.04396C37.0893 1.76381 32.4893 0.624023 27.4996 0.624023C22.5105 0.624023 17.9089 1.76416 13.6962 4.04396C9.48277 6.32387 6.14727 9.41714 3.68816 13.3241C1.22943 17.231 0 21.4973 0 26.1229C0 31.6794 1.74827 36.6759 5.24567 41.1137C8.74271 45.5519 13.2604 48.623 18.7982 50.3272C19.4429 50.4382 19.9201 50.3602 20.2303 50.0951C20.5407 49.8297 20.6957 49.4974 20.6957 49.0994C20.6957 49.033 20.6896 48.4356 20.6777 47.3065C20.6654 46.1775 20.6596 45.1925 20.6596 44.352L19.836 44.4841C19.3109 44.5733 18.6485 44.6111 17.8487 44.6004C17.0493 44.5901 16.2195 44.5124 15.3603 44.368C14.5007 44.2248 13.7012 43.8928 12.9611 43.3726C12.2214 42.8524 11.6963 42.1715 11.3859 41.331L11.0279 40.5669C10.7892 40.0583 10.4135 39.4932 9.90015 38.8738C9.38683 38.2539 8.86774 37.8336 8.34264 37.6123L8.09193 37.4459C7.92488 37.3353 7.76987 37.2019 7.62652 37.0471C7.4833 36.8923 7.37607 36.7374 7.30446 36.5823C7.23273 36.427 7.29217 36.2997 7.48343 36.1998C7.67468 36.0999 8.02032 36.0514 8.52185 36.0514L9.23771 36.1506C9.71516 36.2393 10.3057 36.5044 11.0102 36.9473C11.7143 37.3899 12.293 37.9653 12.7467 38.6733C13.296 39.5811 13.9578 40.2728 14.734 40.7488C15.5095 41.2248 16.2915 41.4624 17.0791 41.4624C17.8667 41.4624 18.5469 41.407 19.1201 41.2969C19.6926 41.1862 20.2297 41.0198 20.7312 40.7986C20.9461 39.3149 21.531 38.1751 22.4855 37.3784C21.125 37.2458 19.9019 37.0462 18.8154 36.7807C17.7296 36.5148 16.6075 36.0834 15.4499 35.4852C14.2918 34.8878 13.331 34.1459 12.5673 33.261C11.8035 32.3755 11.1767 31.213 10.6877 29.7746C10.1985 28.3356 9.95382 26.6757 9.95382 24.7943C9.95382 22.1155 10.8969 19.8359 12.7828 17.9543C11.8994 15.9403 11.9828 13.6826 13.0332 11.1814C13.7255 10.982 14.7521 11.1316 16.1126 11.6295C17.4734 12.1276 18.4697 12.5542 19.1025 12.908C19.7353 13.2617 20.2424 13.5613 20.6244 13.8044C22.8448 13.2291 25.1363 12.9414 27.4993 12.9414C29.8623 12.9414 32.1543 13.2291 34.3749 13.8044L35.7355 13.0079C36.6659 12.4764 37.7647 11.9894 39.0291 11.5467C40.2943 11.1042 41.2617 10.9823 41.9304 11.1818C43.0042 13.6831 43.0999 15.9407 42.2162 17.9546C44.1019 19.8363 45.0454 22.1164 45.0454 24.7946C45.0454 26.676 44.7999 28.3412 44.3114 29.7913C43.8223 31.2415 43.19 32.4028 42.4145 33.2776C41.6381 34.1522 40.6711 34.8882 39.5136 35.4855C38.3557 36.0833 37.2333 36.5147 36.1475 36.7806C35.0611 37.0464 33.838 37.2462 32.4775 37.379C33.7183 38.3747 34.3389 39.9464 34.3389 42.0934V49.0985C34.3389 49.4965 34.4881 49.8287 34.7868 50.0942C35.0852 50.3592 35.5564 50.4373 36.201 50.3262C41.7396 48.6222 46.2573 45.551 49.7542 41.1128C53.2507 36.675 54.9996 31.6784 54.9996 26.122C54.9984 21.4969 53.7683 17.231 51.3107 13.3241Z" fill="#E2F1F8"/>
</svg>
